<svg xmlns="http://www.w3.org/2000/svg" xmlns:xlink="http://www.w3.org/1999/xlink" aria-hidden="true" role="img" class="iconify iconify--logos" width="31.88" height="32" preserveAspectRatio="xMidYMid meet" viewBox="0 0 256 257"><defs><linearGradient id="IconifyId1813088fe1fbc01" x1="-46.062%" x2="62.854%" y1="-19.155%" y2="56.33%"><stop offset="0%" stop-color="#41D1FF"></stop><stop offset="100%" stop-color="#BD34FE"></stop></linearGradient><linearGradient id="IconifyId1813088fe1fbc02" x1="43.376%" x2="103.987%" y1="2.242%" y2="98.445%"><stop offset="0%" stop-color="#FFEA83"></stop><stop offset="8.333%" stop-color="#FFDD35"></stop><stop offset="100%" stop-color="#FFA800"></stop></linearGradient></defs><path fill="url(#IconifyId1813088fe1fbc01)" d="M255.153 37.915L134.897 252.513c-2.483 4.424-8.85 4.444-11.36.035L.874 37.915c-2.056-3.598-1.55-8.034 1.257-11.088l34.35-37.36c3.065-3.334 8.326-3.28 11.32.115L129.5 91.5l81.7-101.918c2.994-3.394 8.255-3.448 11.32-.115l34.35 37.36c2.806 3.054 3.312 7.49 1.256 11.088z"></path><path fill="url(#IconifyId1813088fe1fbc02)" d="M128 0L31.25 17.25h96.75V0z"></path></svg>
